<svg xmlns="http://www.w3.org/2000/svg" viewBox="0 0 201.03 288.33"><defs><style>.cls-1{fill:none;}.cls-1,.cls-2{stroke:#231f20;stroke-miterlimit:10;stroke-width:8px;}</style></defs><title>Asset 19</title><g id="Layer_2" data-name="Layer 2"><g id="Layer_1-2" data-name="Layer 1"><polygon class="cls-1" points="38.03 76.33 38.03 284.33 197.03 284.33 197.03 119.92 153.44 76.33 38.03 76.33"/><polyline class="cls-1" points="153.44 76.33 153.44 120.3 197.03 120.3"/><rect class="cls-2" x="49.44" y="252.39" width="137.65" height="6.53"/><rect class="cls-2" x="49.44" y="216.15" width="137.65" height="6.53"/><rect class="cls-2" x="49.44" y="179.92" width="137.65" height="6.53"/><rect class="cls-2" x="49.44" y="143.68" width="137.65" height="6.53"/><path class="cls-1" d="M79.4,4H28.13A24.13,24.13,0,0,0,4,28.13v2.41A24.13,24.13,0,0,0,28.13,54.67H60S74.88,63.06,78.5,68.94c0,0,3.5-13.93,6.74-15,0,0,18.29-12.06,18.29-23.42V28.13A24.13,24.13,0,0,0,79.4,4Z"/></g></g></svg>