<svg xmlns="http://www.w3.org/2000/svg" viewBox="0 0 196.29 284.18"><defs><style>.cls-1{fill:none;stroke:#231f20;stroke-miterlimit:10;stroke-width:4px;}</style></defs><title>Asset 9</title><g id="Layer_2" data-name="Layer 2"><g id="Layer_1-2" data-name="Layer 1"><polygon class="cls-1" points="35.29 74.19 35.29 282.19 194.29 282.19 194.29 117.77 150.71 74.19 35.29 74.19"/><polyline class="cls-1" points="150.71 74.19 150.71 118.16 194.29 118.16"/><rect x="46.71" y="250.24" width="137.65" height="6.53"/><rect x="46.71" y="214.01" width="137.65" height="6.53"/><rect x="46.71" y="177.77" width="137.65" height="6.53"/><rect x="46.71" y="141.54" width="137.65" height="6.53"/><path class="cls-1" d="M77.4,2H26.13A24.13,24.13,0,0,0,2,26.13v2.41A24.13,24.13,0,0,0,26.13,52.67H58S72.88,61.06,76.5,66.94c0,0,3.5-13.93,6.74-15,0,0,18.29-12.06,18.29-23.42V26.13A24.13,24.13,0,0,0,77.4,2Z"/></g></g></svg>