<svg xmlns="http://www.w3.org/2000/svg" viewBox="0 0 138.77 141.59"><defs><style>.cls-1{fill:none;stroke:#5c5d60;stroke-miterlimit:10;stroke-width:8px;}.cls-2{fill:#5c5d60;}.cls-3{fill:#fff;}</style></defs><title>Asset 12</title><g id="Layer_2" data-name="Layer 2"><g id="Layer_1-2" data-name="Layer 1"><path class="cls-1" d="M29.76,7.93H106A25.76,25.76,0,0,1,131.76,33.7v76.23A25.76,25.76,0,0,1,106,135.7H29.76A25.77,25.77,0,0,1,4,109.93"/><circle class="cls-2" cx="6.76" cy="10.7" r="6.76"/><circle class="cls-2" cx="6.76" cy="48.97" r="6.76"/><circle class="cls-2" cx="6.76" cy="85.64" r="6.76"/><rect class="cls-2" x="26.68" y="42.2" width="83.67" height="13.53"/><rect class="cls-2" x="26.68" y="78.88" width="83.67" height="13.53"/><rect class="cls-3" x="33.47" y="41.96" width="9.35" height="14.01"/><rect class="cls-3" x="51.47" y="41.96" width="9.35" height="14.01"/><rect class="cls-3" x="69.65" y="41.96" width="9.35" height="14.01"/><rect class="cls-3" x="87.47" y="41.96" width="9.35" height="14.01"/><rect class="cls-3" x="104.76" y="41.96" width="9.35" height="14.01"/><rect class="cls-3" x="23.47" y="78.64" width="9.35" height="14.01"/><rect class="cls-3" x="41.47" y="78.64" width="9.35" height="14.01"/><rect class="cls-3" x="59.65" y="78.64" width="9.35" height="14.01"/><rect class="cls-3" x="77.47" y="78.64" width="9.35" height="14.01"/><rect class="cls-3" x="94.76" y="78.64" width="9.35" height="14.01"/><rect class="cls-3" x="23.47" y="127.58" width="9.35" height="14.01"/><rect class="cls-3" x="4.94" y="120.57" width="9.35" height="14.01" transform="translate(93.03 30.57) rotate(45)"/><rect class="cls-3" x="41.47" y="127.58" width="9.35" height="14.01"/><rect class="cls-3" x="59.65" y="127.58" width="9.35" height="14.01"/><rect class="cls-3" x="77.47" y="127.58" width="9.35" height="14.01"/><rect class="cls-3" x="94.76" y="127.58" width="9.35" height="14.01"/><rect class="cls-3" x="127.09" y="90.52" width="9.35" height="14.01"/><rect class="cls-3" x="127.09" y="70.05" width="9.35" height="14.01"/><rect class="cls-3" x="127.09" y="49.58" width="9.35" height="14.01"/><rect class="cls-3" x="127.09" y="25.93" width="9.35" height="14.01" transform="translate(164.7 -98.83) rotate(90)"/><rect class="cls-3" x="118.62" y="8.29" width="9.35" height="14.01" transform="translate(46.93 -82.7) rotate(45)"/><rect class="cls-3" x="94.76" width="9.35" height="14.01" transform="translate(198.88 14.01) rotate(180)"/><rect class="cls-3" x="77.47" width="9.35" height="14.01" transform="translate(164.29 14.01) rotate(180)"/><rect class="cls-3" x="59.17" width="9.35" height="14.01" transform="translate(127.68 14.01) rotate(180)"/><rect class="cls-3" x="41.47" width="9.35" height="14.01" transform="translate(92.29 14.01) rotate(180)"/><rect class="cls-3" x="118.24" y="120.57" width="9.35" height="14.01" transform="translate(-54.21 124.28) rotate(-45)"/></g></g></svg>