<svg xmlns="http://www.w3.org/2000/svg" viewBox="0 0 163 212"><defs><style>.cls-1{fill:none;stroke:#231f20;stroke-miterlimit:10;stroke-width:4px;}.cls-2{fill:#ed2024;}</style></defs><title>Asset 6</title><g id="Layer_2" data-name="Layer 2"><g id="Layer_1-2" data-name="Layer 1"><polygon class="cls-1" points="2 2 2 210 161 210 161 45.59 117.41 2 2 2"/><polyline class="cls-1" points="117.41 2 117.41 45.97 161 45.97"/><rect x="13.41" y="178.06" width="137.65" height="6.53"/><rect x="13.41" y="141.82" width="137.65" height="6.53"/><rect x="13.41" y="105.59" width="137.65" height="6.53"/><rect x="13.41" y="69.35" width="137.65" height="6.53"/><polygon class="cls-2" points="85.32 140.32 76.83 131.82 51.37 157.29 25.91 131.82 17.41 140.32 42.87 165.78 17.41 191.24 25.91 199.74 51.37 174.27 76.83 199.74 85.32 191.24 59.86 165.78 85.32 140.32"/></g></g></svg>