<svg xmlns="http://www.w3.org/2000/svg" viewBox="0 0 167 216"><defs><style>.cls-1{fill:none;}.cls-1,.cls-2{stroke:#231f20;stroke-miterlimit:10;stroke-width:8px;}.cls-3{fill:#ed2024;}</style></defs><title>Asset 21</title><g id="Layer_2" data-name="Layer 2"><g id="Layer_1-2" data-name="Layer 1"><polygon class="cls-1" points="4 4 4 212 163 212 163 47.59 119.41 4 4 4"/><polyline class="cls-1" points="119.41 4 119.41 47.97 163 47.97"/><rect class="cls-2" x="15.41" y="180.06" width="137.65" height="6.53"/><rect class="cls-2" x="15.41" y="143.82" width="137.65" height="6.53"/><rect class="cls-2" x="15.41" y="107.59" width="137.65" height="6.53"/><rect class="cls-2" x="15.41" y="71.35" width="137.65" height="6.53"/><polygon class="cls-3" points="149.54 89.23 133.46 73.15 85.25 121.36 37.04 73.15 20.95 89.23 69.17 137.44 20.95 185.65 37.04 201.74 85.25 153.52 133.46 201.74 149.54 185.65 101.33 137.44 149.54 89.23"/></g></g></svg>