<svg xmlns="http://www.w3.org/2000/svg" viewBox="0 0 163 212"><defs><style>.cls-1{fill:none;stroke:#231f20;stroke-miterlimit:10;stroke-width:4px;}.cls-2{fill:#ed2024;}</style></defs><title>Asset 10</title><g id="Layer_2" data-name="Layer 2"><g id="Layer_1-2" data-name="Layer 1"><polygon class="cls-1" points="2 2 2 210 161 210 161 45.59 117.41 2 2 2"/><polyline class="cls-1" points="117.41 2 117.41 45.97 161 45.97"/><rect x="13.41" y="178.06" width="137.65" height="6.53"/><rect x="13.41" y="141.82" width="137.65" height="6.53"/><rect x="13.41" y="105.59" width="137.65" height="6.53"/><rect x="13.41" y="69.35" width="137.65" height="6.53"/><polygon class="cls-2" points="146 87.23 129.92 71.15 81.71 119.36 33.49 71.15 17.41 87.23 65.62 135.44 17.41 183.65 33.49 199.74 81.71 151.52 129.92 199.74 146 183.65 97.79 135.44 146 87.23"/></g></g></svg>